<svg width="25" height="30" viewBox="0 0 25 30" fill="none" xmlns="http://www.w3.org/2000/svg">
<path d="M18.7558 9.32987C18.7558 9.92916 18.269 10.415 17.6685 10.415C17.068 10.415 16.5812 9.92916 16.5812 9.32987C16.5812 8.73057 17.068 8.24475 17.6685 8.24475C18.269 8.24475 18.7558 8.73057 18.7558 9.32987Z" fill="white"/>
<path d="M7.88278 9.32987C7.88278 9.92916 7.39598 10.415 6.79547 10.415C6.19497 10.415 5.70817 9.92916 5.70817 9.32987C5.70817 8.73057 6.19497 8.24475 6.79547 8.24475C7.39598 8.24475 7.88278 8.73057 7.88278 9.32987Z" fill="white"/>
<path d="M7.88278 22.3512C7.88278 22.9505 7.39598 23.4363 6.79547 23.4363C6.19497 23.4363 5.70817 22.9505 5.70817 22.3512C5.70817 21.7519 6.19497 21.2661 6.79547 21.2661C7.39598 21.2661 7.88278 21.7519 7.88278 22.3512Z" fill="white"/>
<path d="M13.3194 24.5215C13.3194 25.1208 12.8326 25.6066 12.2321 25.6066C11.6316 25.6066 11.1448 25.1208 11.1448 24.5215C11.1448 23.9222 11.6316 23.4364 12.2321 23.4364C12.8326 23.4364 13.3194 23.9222 13.3194 24.5215Z" fill="white"/>
<path d="M4.6209 15.7748C4.6209 16.3741 4.1341 16.8599 3.53359 16.8599C2.93309 16.8599 2.44629 16.3741 2.44629 15.7748C2.44629 15.1755 2.93309 14.6897 3.53359 14.6897C4.1341 14.6897 4.6209 15.1755 4.6209 15.7748Z" fill="white"/>
<path d="M22.0177 15.7748C22.0177 16.3741 21.5309 16.8599 20.9304 16.8599C20.3299 16.8599 19.8431 16.3741 19.8431 15.7748C19.8431 15.1755 20.3299 14.6897 20.9304 14.6897C21.5309 14.6897 22.0177 15.1755 22.0177 15.7748Z" fill="white"/>
<path d="M18.7558 22.3512C18.7558 22.9505 18.269 23.4363 17.6685 23.4363C17.068 23.4363 16.5812 22.9505 16.5812 22.3512C16.5812 21.7519 17.068 21.2661 17.6685 21.2661C18.269 21.2661 18.7558 21.7519 18.7558 22.3512Z" fill="white"/>
<path fill-rule="evenodd" clip-rule="evenodd" d="M17.3858 27.0581C17.7942 26.8622 18.2869 26.9298 18.6029 27.2542L20.4287 29.1292C20.6963 29.4039 21.1378 29.4039 21.4054 29.1292V29.1292C21.6631 28.8645 21.6631 28.4427 21.4054 28.1781L20.0486 26.7849C19.6227 26.3475 19.6871 25.6356 20.1464 25.2333C22.7881 22.9195 24.4644 19.4688 24.4644 15.6145C24.4644 8.6477 18.9878 3 12.2322 3C5.47653 3 0 8.6477 0 15.6145C0 19.4288 1.64164 22.8477 4.23602 25.1608C4.68874 25.5644 4.74925 26.2708 4.32609 26.7054L2.89192 28.1781C2.6342 28.4427 2.6342 28.8645 2.89192 29.1291V29.1291C3.15949 29.4039 3.60099 29.4039 3.86857 29.1292L5.7482 27.199C6.06681 26.8718 6.56474 26.8061 6.97457 27.0076C8.56732 27.7907 10.3501 28.229 12.2322 28.229C14.0734 28.229 15.8196 27.8095 17.3858 27.0581ZM12.2322 26.8274C18.2372 26.8274 23.1052 21.8072 23.1052 15.6145C23.1052 9.42179 18.2372 4.40161 12.2322 4.40161C6.22716 4.40161 1.35913 9.42179 1.35913 15.6145C1.35913 21.8072 6.22716 26.8274 12.2322 26.8274ZM11.4726 15.298V11.5001V7.94092C11.4726 7.50942 11.8224 7.15963 12.2539 7.15963V7.15963C12.6854 7.15963 13.0352 7.50942 13.0352 7.94092V11.5001V15.298V15.8406V16.1226C13.0352 16.5661 12.6756 16.9257 12.2321 16.9257V16.9257V16.9257C11.8126 16.9257 11.4726 16.5857 11.4726 16.1663V15.8406V15.298Z" fill="white"/>
<path d="M11.4644 4V0H12.9644V4H11.4644Z" fill="white"/>
<path d="M4.46436 0.75C4.46436 0.335786 4.80014 0 5.21436 0H19.2144C19.6286 0 19.9644 0.335786 19.9644 0.75V0.75C19.9644 1.16421 19.6286 1.5 19.2144 1.5H5.21436C4.80014 1.5 4.46436 1.16421 4.46436 0.75V0.75Z" fill="white"/>
</svg>
