<svg width="57" height="61" viewBox="0 0 57 61" fill="none" xmlns="http://www.w3.org/2000/svg">
<path d="M53.1661 28.0718H3.18155C1.42716 28.0718 0 26.6543 0 24.9115V15.4434C0 13.7006 1.42716 12.2825 3.18155 12.2825H53.1655C54.9193 12.2825 56.3459 13.7006 56.3459 15.4434V24.9121C56.3465 26.6543 54.9199 28.0718 53.1661 28.0718ZM3.18155 14.7046C2.77814 14.7046 2.4375 15.0431 2.4375 15.4434V24.9121C2.4375 25.3191 2.77144 25.6503 3.18155 25.6503H53.1655C53.575 25.6503 53.9084 25.3191 53.9084 24.9121V15.4434C53.9084 15.0425 53.5677 14.7046 53.1655 14.7046H3.18155Z" fill="white"/>
<path d="M46.1953 60.508H10.1495C6.77239 60.508 4.02472 57.7782 4.02472 54.4217V26.8607C4.02472 26.1922 4.57072 25.6497 5.24347 25.6497C5.91622 25.6497 6.46222 26.1922 6.46222 26.8607V54.4217C6.46222 56.4424 8.11667 58.0858 10.1495 58.0858H46.1953C48.2276 58.0858 49.8814 56.4424 49.8814 54.4217V26.8607C49.8814 26.1922 50.4274 25.6497 51.1002 25.6497C51.7729 25.6497 52.3189 26.1922 52.3189 26.8607V54.4217C52.3189 57.7782 49.5719 60.508 46.1953 60.508Z" fill="white"/>
<path d="M28.1731 60.508C27.5003 60.508 26.9543 59.966 26.9543 59.2969V26.8607C26.9543 26.1922 27.5003 25.6497 28.1731 25.6497C28.8458 25.6497 29.3918 26.1922 29.3918 26.8607V59.2963C29.3918 59.966 28.8465 60.508 28.1731 60.508Z" fill="white"/>
<path d="M12.9619 14.7005C9.14717 12.6465 7.72367 7.89185 9.78884 4.10058C11.8528 0.311137 16.637 -1.104 20.4535 0.946344C26.2676 4.07576 29.4071 12.8064 29.5375 13.1764L27.2383 13.9799C27.209 13.8976 24.2761 5.75854 19.2939 3.07662C16.6583 1.66088 13.3567 2.63821 11.9326 5.25352C10.5073 7.87126 11.4896 11.1533 14.1239 12.5708L12.9619 14.7005Z" fill="white"/>
<path d="M43.3818 14.7005L42.2216 12.5702C43.4982 11.8829 44.4287 10.7439 44.8431 9.36267C45.2569 7.98084 45.1039 6.5215 44.4123 5.25411C43.7225 3.98551 42.5768 3.06146 41.1869 2.6503C39.7963 2.23914 38.3289 2.39053 37.0529 3.0766C32.0706 5.75792 29.1377 13.8969 29.1084 13.9793L26.8093 13.1757C26.9397 12.8058 30.0786 4.07513 35.8926 0.946323C37.7402 -0.0479671 39.8688 -0.267171 41.8822 0.328677C43.8974 0.923919 45.5567 2.26397 46.5567 4.10056C47.5579 5.93655 47.7791 8.05048 47.1795 10.053C46.5792 12.0549 45.2307 13.705 43.3818 14.7005Z" fill="white"/>
<path d="M51.1002 44.2906H5.24347C4.57072 44.2906 4.02472 43.748 4.02472 43.0795C4.02472 42.411 4.57072 41.8684 5.24347 41.8684H51.1002C51.7729 41.8684 52.3189 42.411 52.3189 43.0795C52.3189 43.748 51.7735 44.2906 51.1002 44.2906Z" fill="white"/>
</svg>
