<svg viewBox="0 0 29 32" fill="black" xmlns="http://www.w3.org/2000/svg">
        <path d="M20.4223 18.4833C18.7163 18.4833 17.3338 19.9616 17.3338 21.7843C17.3338 23.6084 18.7168 25.0863 20.4223 25.0863C22.1279 25.0863 23.5104 23.608 23.5104 21.7843C23.5104 19.9611 22.1274 18.4833 20.4223 18.4833ZM20.4223 23.4966C19.5383 23.4966 18.8214 22.7303 18.8214 21.7853C18.8214 20.8393 19.5383 20.0735 20.4223 20.0735C21.3064 20.0735 22.0237 20.8393 22.0237 21.7853C22.0237 22.7303 21.3064 23.4966 20.4223 23.4966Z" fill="white"/>
        <path d="M11.2529 0C9.49252 0 8.06563 1.52481 8.06563 3.40709C8.06563 5.28937 9.49207 6.8137 11.2529 6.8137C13.0138 6.8137 14.4402 5.28986 14.4402 3.40709C14.4397 1.52433 13.0133 0 11.2529 0ZM11.2525 5.47586C10.1835 5.47586 9.31716 4.54973 9.31716 3.40661C9.31716 2.26397 10.1835 1.33736 11.2525 1.33736C12.3218 1.33736 13.1882 2.26397 13.1882 3.40661C13.1882 4.54973 12.3218 5.47586 11.2525 5.47586Z" fill="white"/>
        <path d="M7.98741 18.0101C6.69374 18.0101 5.64612 19.13 5.64612 20.5129C5.64612 21.8953 6.69374 23.0157 7.98741 23.0157C9.28109 23.0157 10.3287 21.8953 10.3287 20.5129C10.3287 19.1305 9.28109 18.0101 7.98741 18.0101ZM7.7605 19.8997C7.30148 19.8997 8.91868 21.0036 8.91868 20.5129C8.91868 20.0232 7.30148 20.8997 7.7605 20.8997C8.21906 20.8997 8.81754 20.0222 8.81754 20.5119C8.81754 21.0026 8.21906 19.8997 7.7605 19.8997Z" fill="white"/>
        <path d="M18.1463 9.77278C18.1463 9.77278 21.1863 8.93433 24.3242 11.2666C25.2314 12.0266 26.0896 12.603 25.4765 13.3891C25.133 13.7296 24.8394 14.0459 23.7605 12.865C22.7065 12.105 21.0409 10.9668 18.1463 11.4235C17.0185 11.6599 16.1847 11.9743 14.5906 13.5727C12.997 15.1711 10.6185 16.2978 8.09326 16.0619C5.568 15.8265 4.24442 14.804 2.84698 13.5199C2.55291 13.1004 2.55291 12.6548 2.72419 12.3928C2.89547 12.1307 3.55748 11.8687 3.92542 12.2615C4.29336 12.6548 6.03381 14.2271 7.7498 14.3317C9.46623 14.4363 11.1827 14.5415 13.4868 12.3661C15.7928 10.1923 16.9451 10.0348 18.1463 9.77278Z" fill="white"/>
        <path d="M28.2918 26.8257V8.16757C28.2918 7.58922 27.9179 7.51754 27.768 7.51221H27.2623C26.7688 7.51221 26.7258 8.06875 26.7244 8.25088C26.7244 8.2688 26.7244 8.28382 26.7244 8.30174C26.7244 8.30319 26.7244 8.31143 26.7244 8.31143C26.7258 11.92 26.7335 26.5646 26.7226 26.8514C26.7104 27.1793 26.6492 28.0177 25.9015 28.7385C25.0932 29.4336 24.2839 29.3415 24.2839 29.3415C24.2839 29.3415 4.10667 29.3415 3.62862 29.3149C3.24891 29.2495 2.58689 29.1052 2.02275 28.3059C1.45906 27.5067 1.56962 26.4585 1.56962 26.4585V8.32499C1.56962 7.48654 0.895375 7.51269 0.895375 7.51269H0.588156C0.0521094 7.51269 0.00271875 8.10072 0 8.28914C0 11.751 0 25.6569 0 26.8262C0 28.1631 0.453578 29.2238 1.54787 30.163C2.64172 31.1018 3.9227 31.0194 3.9227 31.0194C3.9227 31.0194 23.6463 31.0194 24.5045 31.017C25.3628 31.0146 26.4901 30.6004 27.4204 29.4617C28.3498 28.3229 28.2918 26.8257 28.2918 26.8257Z" fill="white"/>
    </svg>
