<svg xmlns="http://www.w3.org/2000/svg">
    <symbol viewBox="0 0 36 50" id="icon-loss">
      <path d="M28.2 0H28c-.32.19-.59.47-.74.82a8.03 8.03 0 0 0-.67 1.76.84.84 0 0 1-.76.69 3.77 3.77 0 0 0-2.69 1.95c-.37.66-.69 1.35-.95 2.06-.73 1.9-1.29 3.85-1.98 5.77-.32.87-.34.87-1.32.87-1.16 0-1.08-.18-1.1 1.1 0 .41.13.62.56.6.13 0 .33-.07.39.1.05.18-.13.26-.23.36a4.63 4.63 0 0 1-2.23 1.26c-.97.26-1.97.47-2.92.79-2.45.82-4.7 1.96-6.46 3.9a14.44 14.44 0 0 0-2.44 4.04c-1.89 4.46-2.8 9.15-3.51 13.88a97.06 97.06 0 0 0-.75 6.7C.1 47.75 0 48.88 0 50h17.14c.03-.23-.01-.46-.12-.66a2.58 2.58 0 0 0-1.97-1.58c-.36-.08-.4-.2-.18-.48.36-.48.64-1.02.82-1.6.84-2.47 1.16-5.06 1.57-7.62.23-1.96.83-3.85 1.77-5.59a11.13 11.13 0 0 1 2.87-3.28c.43-.32.45-.32.52.23.05.36.06.74.09 1.11.15 2.44.12 4.88-.1 7.31-.2 1.88-.22 3.78-.07 5.67.2 2.2.59 4.36 1.16 6.49h6.84a2.8 2.8 0 0 0-2.18-2.29c-.64-.1-1.3-.07-1.93.1-.31.08-.44 0-.46-.33-.22-2.73-.04-5.47.51-8.16a91.8 91.8 0 0 0 1.57-9.37c.14-1.27.54-2.5 1.18-3.6.6-1.1 1.14-2.23 1.74-3.33a3.03 3.03 0 0 0 .22-2.67c-.14-.37-.27-.74-.44-1.1-.52-1-1.03-2-1.5-3-.26-.52-.2-.59.36-.6.84 0 .84 0 .86-.85v-.34c0-.35-.14-.55-.52-.51h-.78c-.36 0-.46-.15-.37-.52a3.22 3.22 0 0 1 2.64-2.28 11.3 11.3 0 0 1 3.4.22.51.51 0 0 0 .65-.33 40 40 0 0 1 .66-1.55.52.52 0 0 0-.05-.58c-1.65-2.1-3.43-4.05-5.87-5.3a.77.77 0 0 1-.45-.58c-.14-.74-.35-1.46-.65-2.14A1.8 1.8 0 0 0 28.2 0Z"/>
    </symbol>
    <symbol viewBox="0 0 67 28" id="icon-gain">
      <path d="M61.55 2.9A7.6 7.6 0 0 1 63.8.6c.5-.35.8-.35 1.1.3.4.95.75 1.95.45 3a1.15 1.15 0 0 0 .2 1.05c.3.4.55.8.8 1.15a3.14 3.14 0 0 1 .45 3.1c-.18.5-.22 1.03-.1 1.55.1.5.1 1 0 1.5a1.88 1.88 0 0 1-1.35 1.6 2.6 2.6 0 0 0-1.6 1 .53.53 0 0 1-.45.25c-.6.1-2.1-1.25-2.1-1.85v-.3c.05-1.8-.05-1.95-1.7-2.7a2.2 2.2 0 0 1-.9-.6c-.3-.4-.7-.35-1.15-.2-.45.15-.7.45-.65.95.15 1.21.2 2.43.15 3.65 0 .14.04.28.1.4 1.55 2.25 2.15 4.9 2.9 7.45.6 1.95 1.7 3 3.7 3.15.32.03.64.08.95.15a2.08 2.08 0 0 1 1.7 1.6c.35 1.05.15 1.3-.9 1.3h-3.25c-.42.02-.83-.12-1.15-.4a5.86 5.86 0 0 0-1.7-1 3.63 3.63 0 0 1-1.7-1.3 14.3 14.3 0 0 0-2-2.25c-1.4-1.45-2.9-2.85-4.2-4.35a5.69 5.69 0 0 1-1.6-3.8c0-.45-.1-.65-.6-.45a.96.96 0 0 1-.5.15c-1.4 0-2.1.85-2.6 2.1-.45 1.05-1.05 2.05-1.6 3.1A5.2 5.2 0 0 0 44 22c0 1.2.3 1.6 1.4 2 .7.25 1.35.5 1.7 1.2.4.8.3 1-.55 1.05h-3.4a.94.94 0 0 1-.95-.55l-.9-1.5a3.02 3.02 0 0 1-.35-2.7c.22-.87.23-1.77.05-2.65a4.2 4.2 0 0 1 .85-3.5c.3-.35.3-.5-.2-.6a25.03 25.03 0 0 1-5.95-2.1c-1.6-.6-1.9-.5-2.35 1.15-.4 1.4-.8 2.8-1.1 4.25-.35 1.6.05 3.1.55 4.6.2.6.8.55 1.25.7 1 .3 1.85.7 2.25 1.75.35.8.3.9-.55.9-.85 0-1.7-.05-2.6 0-.76.01-1.5-.23-2.1-.7-2.4-1.6-3.1-4.05-3.3-6.7-.1-1.65-1-2.95-2.05-4.2-.2-.25-.4-.35-.7-.15-1.07.6-2.2 1.1-3.35 1.5a13.35 13.35 0 0 0-6.1 4.4 5.31 5.31 0 0 0-1.1 2.55c-.15.9.1 1.3 1 1.55s1.35.75 1.45 1.7c.05.4-.1.6-.5.6h-4.05a.83.83 0 0 1-.65-.4 4.28 4.28 0 0 1-.95-2.75 25.3 25.3 0 0 1 .45-5.15 3.15 3.15 0 0 1 1.7-2.4c2.95-1.4 4.5-4.05 5.9-6.8.3-.55.05-.65-.45-.6-1.4.2-2.73.75-3.85 1.6a35.3 35.3 0 0 0-4.15 3.55 8.34 8.34 0 0 1-5.15 2.45c-3.65.2-5.35-1.85-5.2-5.15.03-1.13.46-2.2 1.2-3.05a2.12 2.12 0 0 1 2.25-.75c.75.2.95.6.65 1.35-.15.3-.35.55-.5.85-.22.3-.38.64-.5 1-.55 1.5.2 2.55 1.75 2.7 1.65.15 3-.55 4.25-1.55 1.5-1.2 2.85-2.6 4-4.15a10.4 10.4 0 0 1 7.2-4.05c1.15-.15 2.15-.65 3.25-.95 2.06-.63 4.2-.93 6.35-.9a6.5 6.5 0 0 0 2.9-.55c2.45-1 5-1 7.55-.5 2 .4 4 .9 5.95 1.4 1.16.22 2.35.18 3.5-.1 2.2-.56 4.44-.9 6.7-1a9.08 9.08 0 0 1 4.3.85c1 .45 1 .45.75 1.4Z"/>
    </symbol>
    <symbol viewBox="0 0 26 28" id="icon-petal">
      <path d="M25.3438 0.767C25.2434 0.317 24.8647 0 24.4325 0C24.4306 0 24.4288 0 24.4269 0C19.4891 0.033 7.48156 0.916 2.63375 8.38C0.115624 12.258 -0.100938 17.293 1.98969 23.345C2.00562 23.392 2.03844 23.424 2.06 23.467C1.31281 25.44 1.02312 26.753 1.01562 26.79C0.906875 27.33 1.23031 27.862 1.73656 27.978C1.80219 27.993 1.86781 28 1.93344 28C2.36562 28 2.75469 27.679 2.84937 27.21C2.86906 27.108 5.25781 16.837 13.7028 10.832C14.1341 10.526 14.2503 9.905 13.9625 9.445C13.6747 8.985 13.0934 8.86 12.6622 9.168C7.87344 12.573 4.92406 17.176 3.18969 20.824C1.94844 16.246 2.27375 12.447 4.17594 9.519C7.91937 3.755 16.7984 2.365 22.1581 2.071C21.005 3.872 19.745 7.174 19.745 13C19.745 16.12 18.9153 18.522 17.2803 20.14C14.6591 22.731 10.4009 22.974 7.28656 22.724C6.76906 22.679 6.32 23.095 6.28062 23.646C6.24125 24.196 6.62844 24.676 7.14406 24.718C7.7675 24.769 8.43313 24.8 9.125 24.8C12.2956 24.8 15.9941 24.137 18.5544 21.606C20.5888 19.595 21.62 16.7 21.62 13.001C21.62 3.902 24.8356 1.905 24.8516 1.896C25.2416 1.687 25.4459 1.219 25.3438 0.767Z"/>
    </symbol>
    <symbol viewBox="0 0 29 32" fill="none" id="icon-powder">
        <path d="M20.4223 18.4833C18.7163 18.4833 17.3338 19.9616 17.3338 21.7843C17.3338 23.6084 18.7168 25.0863 20.4223 25.0863C22.1279 25.0863 23.5104 23.608 23.5104 21.7843C23.5104 19.9611 22.1274 18.4833 20.4223 18.4833ZM20.4223 23.4966C19.5383 23.4966 18.8214 22.7303 18.8214 21.7853C18.8214 20.8393 19.5383 20.0735 20.4223 20.0735C21.3064 20.0735 22.0237 20.8393 22.0237 21.7853C22.0237 22.7303 21.3064 23.4966 20.4223 23.4966Z" fill="white"/>
        <path d="M11.2529 0C9.49252 0 8.06563 1.52481 8.06563 3.40709C8.06563 5.28937 9.49207 6.8137 11.2529 6.8137C13.0138 6.8137 14.4402 5.28986 14.4402 3.40709C14.4397 1.52433 13.0133 0 11.2529 0ZM11.2525 5.47586C10.1835 5.47586 9.31716 4.54973 9.31716 3.40661C9.31716 2.26397 10.1835 1.33736 11.2525 1.33736C12.3218 1.33736 13.1882 2.26397 13.1882 3.40661C13.1882 4.54973 12.3218 5.47586 11.2525 5.47586Z" fill="white"/>
        <path d="M7.98741 18.0101C6.69374 18.0101 5.64612 19.13 5.64612 20.5129C5.64612 21.8953 6.69374 23.0157 7.98741 23.0157C9.28109 23.0157 10.3287 21.8953 10.3287 20.5129C10.3287 19.1305 9.28109 18.0101 7.98741 18.0101ZM7.7605 19.8997C7.30148 19.8997 8.91868 21.0036 8.91868 20.5129C8.91868 20.0232 7.30148 20.8997 7.7605 20.8997C8.21906 20.8997 8.81754 20.0222 8.81754 20.5119C8.81754 21.0026 8.21906 19.8997 7.7605 19.8997Z" fill="white"/>
        <path d="M18.1463 9.77278C18.1463 9.77278 21.1863 8.93433 24.3242 11.2666C25.2314 12.0266 26.0896 12.603 25.4765 13.3891C25.133 13.7296 24.8394 14.0459 23.7605 12.865C22.7065 12.105 21.0409 10.9668 18.1463 11.4235C17.0185 11.6599 16.1847 11.9743 14.5906 13.5727C12.997 15.1711 10.6185 16.2978 8.09326 16.0619C5.568 15.8265 4.24442 14.804 2.84698 13.5199C2.55291 13.1004 2.55291 12.6548 2.72419 12.3928C2.89547 12.1307 3.55748 11.8687 3.92542 12.2615C4.29336 12.6548 6.03381 14.2271 7.7498 14.3317C9.46623 14.4363 11.1827 14.5415 13.4868 12.3661C15.7928 10.1923 16.9451 10.0348 18.1463 9.77278Z" fill="white"/>
        <path d="M28.2918 26.8257V8.16757C28.2918 7.58922 27.9179 7.51754 27.768 7.51221H27.2623C26.7688 7.51221 26.7258 8.06875 26.7244 8.25088C26.7244 8.2688 26.7244 8.28382 26.7244 8.30174C26.7244 8.30319 26.7244 8.31143 26.7244 8.31143C26.7258 11.92 26.7335 26.5646 26.7226 26.8514C26.7104 27.1793 26.6492 28.0177 25.9015 28.7385C25.0932 29.4336 24.2839 29.3415 24.2839 29.3415C24.2839 29.3415 4.10667 29.3415 3.62862 29.3149C3.24891 29.2495 2.58689 29.1052 2.02275 28.3059C1.45906 27.5067 1.56962 26.4585 1.56962 26.4585V8.32499C1.56962 7.48654 0.895375 7.51269 0.895375 7.51269H0.588156C0.0521094 7.51269 0.00271875 8.10072 0 8.28914C0 11.751 0 25.6569 0 26.8262C0 28.1631 0.453578 29.2238 1.54787 30.163C2.64172 31.1018 3.9227 31.0194 3.9227 31.0194C3.9227 31.0194 23.6463 31.0194 24.5045 31.017C25.3628 31.0146 26.4901 30.6004 27.4204 29.4617C28.3498 28.3229 28.2918 26.8257 28.2918 26.8257Z" fill="white"/>
    </symbol>
    <symbol viewBox="0 0 26 30" fill="none" id="icon-replacement"><path fill-rule="evenodd" clip-rule="evenodd" d="M19.12.08a1 1 0 0 1 1.09.21c.9.91 2.1 2.88 3.06 5.92A42.6 42.6 0 0 1 25 19a1 1 0 0 1-1 1h-3.5v9a1 1 0 1 1-2 0V1a1 1 0 0 1 .62-.92ZM20.5 18H23a39.62 39.62 0 0 0-1.64-11.19 22.4 22.4 0 0 0-.86-2.3V18ZM6.5 0a1 1 0 0 1 1 1v28a1 1 0 1 1-2 0V1a1 1 0 0 1 1-1Z" fill="#fff"/><path fill-rule="evenodd" clip-rule="evenodd" d="M2 0a1 1 0 0 1 1 1v5.5c0 .56.2 1.32.7 1.92.48.56 1.31 1.08 2.8 1.08a1 1 0 1 1 0 2 5.41 5.41 0 0 1-4.33-1.8A5.07 5.07 0 0 1 1 6.5V1a1 1 0 0 1 1-1Z" fill="#fff"/><path fill-rule="evenodd" clip-rule="evenodd" d="M11 0a1 1 0 0 0-1 1v5.5c0 .56-.2 1.32-.7 1.92-.48.56-1.31 1.08-2.8 1.08a1 1 0 0 0 0 2c2.01 0 3.43-.73 4.33-1.8A5.07 5.07 0 0 0 12 6.5V1a1 1 0 0 0-1-1Z" fill="#fff"/>
    </symbol>
    <symbol viewBox="0 0 25 30" fill="none" id="icon-time"><path d="M18.76 9.33a1.09 1.09 0 1 1-2.18 0 1.09 1.09 0 0 1 2.18 0ZM7.88 9.33a1.09 1.09 0 1 1-2.17 0 1.09 1.09 0 0 1 2.17 0ZM7.88 22.35a1.09 1.09 0 1 1-2.17 0 1.09 1.09 0 0 1 2.17 0ZM13.32 24.52a1.09 1.09 0 1 1-2.17 0 1.09 1.09 0 0 1 2.17 0ZM4.62 15.77a1.09 1.09 0 1 1-2.17 0 1.09 1.09 0 0 1 2.17 0ZM22.02 15.77a1.09 1.09 0 1 1-2.17 0 1.09 1.09 0 0 1 2.17 0ZM18.76 22.35a1.09 1.09 0 1 1-2.18 0 1.09 1.09 0 0 1 2.18 0Z" fill="#fff"/><path fill-rule="evenodd" clip-rule="evenodd" d="M17.39 27.06c.4-.2.9-.13 1.21.2l1.83 1.87c.27.27.7.27.98 0a.68.68 0 0 0 0-.95l-1.36-1.4c-.43-.43-.36-1.14.1-1.55a12.75 12.75 0 0 0 4.31-9.62C24.46 8.65 19 3 12.23 3 5.48 3 0 8.65 0 15.61c0 3.82 1.64 7.24 4.24 9.55.45.4.5 1.11.09 1.55l-1.44 1.47a.68.68 0 0 0 .98.95l1.88-1.93c.32-.33.81-.4 1.22-.2a11.88 11.88 0 0 0 10.42.06Zm-5.16-.23c6 0 10.88-5.02 10.88-11.22 0-6.19-4.87-11.2-10.88-11.2-6 0-10.87 5.01-10.87 11.2 0 6.2 4.87 11.22 10.87 11.22Zm-.76-11.53V7.94a.78.78 0 0 1 1.56 0v8.18a.8.8 0 0 1-.8.8.76.76 0 0 1-.76-.75V15.3Z" fill="#fff"/><path d="M11.46 4V0h1.5v4h-1.5Z" fill="#fff"/><path d="M4.46.75c0-.41.34-.75.75-.75h14a.75.75 0 0 1 0 1.5h-14a.75.75 0 0 1-.75-.75Z" fill="#fff"/>
    </symbol>
    <symbol viewBox="0 0 28 22" id="icon-vk">
              <path
                d="M1 5.34c0-.86.52-1.32 1.55-1.38l3.97.02c.26 0 .44.13.53.38.4 1.26.86 2.34 1.37 3.25.5.92 1.17 1.97 1.99 3.16.07.15.18.23.34.23.13 0 .22-.06.3-.18l.07-.28.03-4.35c0-.3-.07-.5-.23-.6-.15-.1-.43-.18-.83-.23-.32-.05-.48-.23-.48-.55 0-.07 0-.12.02-.15.38-1.09 1.44-1.63 3.2-1.63l1.5-.03c.67 0 1.23.16 1.67.48.44.32.67.82.67 1.5v5.72c.12.08.24.12.34.12.27 0 .5-.15.7-.45 1.95-2.58 3-4.31 3.17-5.18 0-.02.01-.06.05-.13.12-.25.33-.47.61-.65.29-.19.53-.31.75-.38a.55.55 0 0 1 .24-.05h4.13l.26.03c.36 0 .63.16.83.47.07.1.12.21.15.33a2.4 2.4 0 0 1 .06.55v.18a6.11 6.11 0 0 1-.94 2.2c-.5.78-1.15 1.62-1.93 2.53-.79.9-1.27 1.5-1.47 1.78-.16.2-.24.39-.24.56 0 .13.07.28.21.45l3.9 4.63c.2.26.31.56.31.88 0 .38-.16.7-.48.95-.32.25-.7.4-1.14.43l-.46.02h-4.04c-.02 0-.06 0-.11.02a.86.86 0 0 1-.1.01c-.4 0-.76-.16-1.1-.48-.12-.13-.96-1.12-2.5-2.97a1.39 1.39 0 0 0-.38-.32 38.47 38.47 0 0 0-.53 2.24l-.08.42a1.4 1.4 0 0 1-1.12 1.06l-.37.02h-2.61c-1.48 0-2.95-.63-4.41-1.9a19.3 19.3 0 0 1-3.96-4.95 47.51 47.51 0 0 1-3.28-7.05A1.92 1.92 0 0 1 1 5.34Zm16.01 6.51c-.37 0-.7-.1-1.01-.29a.9.9 0 0 1-.45-.79V5c0-.34-.1-.58-.27-.72-.18-.14-.49-.21-.93-.21l-1.52.05c-.76 0-1.34.12-1.73.37.78.36 1.17.93 1.17 1.71v4.43a1.5 1.5 0 0 1-.53 1.04c-.32.28-.68.42-1.07.42-.53 0-.94-.24-1.22-.73a26.16 26.16 0 0 1-3.1-5.63l-.23-.66-3.55-.02c-.23 0-.36.01-.38.03-.03.03-.04.1-.04.22 0 .15.01.3.05.48l.56 1.4c1.49 3.64 3.11 6.51 4.86 8.6 1.75 2.1 3.47 3.15 5.16 3.15h2.66c.1 0 .19-.03.24-.09.05-.06.1-.17.13-.34l.06-.25.5-2.21c.15-.3.27-.5.38-.6.2-.2.42-.28.69-.28.43 0 .86.24 1.3.73l2.27 2.71c.14.22.3.33.45.33h4.4c.53 0 .8-.13.8-.38a.47.47 0 0 0-.08-.25l-3.87-4.55c-.3-.35-.45-.73-.45-1.13 0-.4.14-.8.43-1.16.23-.34.68-.9 1.34-1.67.67-.78 1.25-1.51 1.75-2.19.5-.68.82-1.3.98-1.85l.08-.33a.37.37 0 0 1-.02-.16c0-.07-.01-.14-.03-.19h-4.18c-.27.1-.48.25-.64.45L21.8 6c-.45 1.16-1.6 2.94-3.5 5.36-.36.33-.8.5-1.3.5Z" />
    </symbol>
    <symbol viewBox="0 0 28 22" id="icon-youtube">
              <path
                d="m17.85 10.8-5.24-3.5a.65.65 0 0 0-1.01.55v6.98a.65.65 0 0 0 1.01.54l5.24-3.49a.65.65 0 0 0 0-1.09Zm-4.94 2.8V9.08l3.4 2.27-3.4 2.27Zm12.48-8.56a2.4 2.4 0 0 0-1.45-1.63C20.22 1.98 14.25 2 14 2s-6.22-.02-9.94 1.4a2.4 2.4 0 0 0-1.45 1.64 25.32 25.32 0 0 0-.61 6.3c0 3.26.33 5.22.61 6.3a2.4 2.4 0 0 0 1.45 1.63c3.72 1.43 9.69 1.4 9.94 1.4h.08c.75 0 6.31-.04 9.86-1.4a2.4 2.4 0 0 0 1.45-1.64c.28-1.07.61-3.03.61-6.3 0-3.25-.33-5.22-.61-6.29Zm-1.27 12.27a1.1 1.1 0 0 1-.65.74c-3.5 1.34-9.4 1.32-9.47 1.32-.07 0-5.98.02-9.47-1.32a1.09 1.09 0 0 1-.65-.74c-.27-1-.57-2.85-.57-5.97 0-3.12.3-4.97.57-5.97a1.1 1.1 0 0 1 .65-.74C8.03 3.29 13.93 3.3 14 3.3c.07 0 5.98-.02 9.47 1.32a1.1 1.1 0 0 1 .65.74c.27 1 .57 2.85.57 5.97 0 3.12-.3 4.96-.57 5.97Z" />
    </symbol>
    <symbol viewBox="0 0 28 22" id="icon-telegram">
              <path fill-rule="evenodd" clip-rule="evenodd"
                d="M23.46 3.15c.18.15.27.38.23.61l-2.63 15.76a.66.66 0 0 1-1.01.44l-7.88-5.25a.66.66 0 0 1-.15-.96l2.61-3.26-4.36 2.9a.66.66 0 0 1-.65.05L4.36 10.8a.66.66 0 0 1 .08-1.2l18.38-6.57a.66.66 0 0 1 .64.11ZM6.33 10.32l3.53 1.77 7.56-5.04a.66.66 0 0 1 .88.96l-4.8 6 6.43 4.3 2.28-13.66-15.88 5.67Z" />
  </symbol>
  <symbol viewBox="0 0 27 34" id="icon-academy">
            <path
              d="M13.64.02 13.5 0 0 1.4v24.61L13.5 34 27 26.01V1.41L13.64 0Zm11.6 25L13.5 31.96 1.77 25.02v-10.1l11.68 6.93.02 1.25-8.02-4.75v1.23l8.04 4.8.02 1.3-8.05-4.76v1.22l8.04 4.81 8.12-4.83V16.9l3.62-2.15v10.26Zm0-11.57L22 15.33l-1.48.88-7.06-4.19-.01 1.23 6.04 3.57-.06.03-.13.07-.86.5-4.98-2.95-.01 1.22 3.93 2.33-.93.61-.02.01-2.97-1.74-.01 1.23 1.94 1.13-1.98 1.19L1.8 13.58l11.63-6.96 11.8 6.83Zm0-1.22L13.43 5.3 1.77 12.22V2.99L13.5 1.76 25.23 3v9.24Z" />
          </symbol>
          <symbol viewBox="0 0 24 18" id="icon-scroller"><path d="M8 0 0 9l8 9V0ZM24 9l-8-9v18l8-9Z"/></symbol>
          <symbol viewBox="0 0 19 14" fill="none" id="icon-email"><path stroke-width="1.3" d="M.65 5.85v8M17.65 5.85v8M0 13.2h18M0 1.2h18M17.35 3.03 9 9.53.65 3.02V1.5h16.7v1.53Z"/>
          </symbol>
          <symbol viewBox="0 0 20 21" id="icon-tel"><g clip-path="url(#a)"><path d="M17.9 9.75H9.4v1.2h8.5l-2.1 2.11.9.9 3.1-3.1a.75.75 0 0 0 0-.9l-3.1-3.12-.9.9 2.1 2.01ZM8.1 19.79v-6.22a.65.65 0 0 0-.6-.6H3.1a1.23 1.23 0 0 0 1.2 1.2h2.5v5.02H3.1a1.78 1.78 0 0 1-1.9-1.71V3.43a1.78 1.78 0 0 1 1.7-1.8h3.9v5.01H4.4a1.22 1.22 0 0 0-1.2 1.2h4.4a.65.65 0 0 0 .6-.6V.92a.86.86 0 0 0-.7-.6H3.1A3 3 0 0 0 0 3.23v13.95a2.9 2.9 0 0 0 2.9 3.1h4.6a.5.5 0 0 0 .6-.5Z"/></g><defs><clipPath id="a"><path fill="none" transform="translate(0 .32)" d="M0 0h20v20.07H0z"/></clipPath></defs>
          </symbol>
          <symbol viewBox="0 0 78 80" id="icon-promotion">
          <path
            d="M64.02 34.71H14.03a3.17 3.17 0 0 1-3.18-3.16v-9.47a3.17 3.17 0 0 1 3.18-3.16h49.98a3.17 3.17 0 0 1 3.19 3.16v9.47a3.17 3.17 0 0 1-3.18 3.16ZM14.03 21.35c-.4 0-.74.33-.74.73v9.47c0 .41.33.74.74.74h49.98c.41 0 .75-.33.75-.74v-9.47c0-.4-.34-.73-.75-.73H14.03Z" />
          <path
            d="M57.04 67.15H21a6.11 6.11 0 0 1-6.13-6.09V33.5c0-.67.55-1.2 1.22-1.2.68 0 1.22.53 1.22 1.2v27.56A3.68 3.68 0 0 0 21 64.73h36.04a3.68 3.68 0 0 0 3.7-3.67V33.5a1.22 1.22 0 0 1 2.44 0v27.56a6.11 6.11 0 0 1-6.14 6.09Z" />
          <path
            d="M39.02 67.15c-.67 0-1.22-.54-1.22-1.21V33.5c0-.67.55-1.2 1.22-1.2.68 0 1.22.53 1.22 1.2v32.44c0 .67-.54 1.2-1.22 1.2ZM23.81 21.34a7.8 7.8 0 0 1-3.17-10.6A7.9 7.9 0 0 1 31.3 7.6c5.82 3.13 8.96 11.86 9.09 12.23l-2.3.8c-.03-.08-2.96-8.22-7.95-10.9a5.46 5.46 0 0 0-7.36 2.17 5.39 5.39 0 0 0 2.2 7.32l-1.17 2.13Z" />
          <path
            d="m54.23 21.34-1.16-2.13a5.38 5.38 0 0 0-1.03-9.92 5.43 5.43 0 0 0-4.14.43c-4.98 2.68-7.91 10.82-7.94 10.9l-2.3-.8c.13-.37 3.27-9.1 9.08-12.23a7.86 7.86 0 0 1 11.29 9.1c-.6 2-1.95 3.66-3.8 4.65ZM61.95 50.93H16.09c-.67 0-1.22-.54-1.22-1.21 0-.67.55-1.21 1.22-1.21h45.86c.67 0 1.22.54 1.22 1.21 0 .67-.55 1.21-1.22 1.21Z" />
        </symbol>
  </svg>
