<svg width="57" height="61" fill="none" xmlns="http://www.w3.org/2000/svg"><path d="M53.166 28.072H3.182C1.427 28.072 0 26.654 0 24.912v-9.469c0-1.742 1.427-3.16 3.182-3.16h49.983c1.754 0 3.18 1.418 3.18 3.16v9.47c.002 1.741-1.425 3.159-3.179 3.159ZM3.182 14.705a.751.751 0 0 0-.744.738v9.47c0 .406.333.737.744.737h49.983c.41 0 .743-.33.743-.738v-9.469a.75.75 0 0 0-.742-.738H3.181Z" fill="#fff"/><path d="M46.195 60.508H10.15c-3.378 0-6.125-2.73-6.125-6.086V26.86c0-.669.546-1.211 1.218-1.211.673 0 1.22.542 1.22 1.21v27.562c0 2.02 1.654 3.664 3.686 3.664h36.046c2.033 0 3.686-1.644 3.686-3.664V26.86c0-.669.546-1.211 1.22-1.211.672 0 1.218.542 1.218 1.21v27.562c0 3.356-2.747 6.086-6.124 6.086Z" fill="#fff"/><path d="M28.173 60.508a1.215 1.215 0 0 1-1.219-1.211V26.86c0-.669.546-1.211 1.22-1.211.672 0 1.218.542 1.218 1.21v32.436c0 .67-.546 1.212-1.219 1.212ZM12.962 14.7C9.147 12.648 7.724 7.893 9.789 4.1 11.853.312 16.637-1.103 20.453.947c5.815 3.13 8.954 11.86 9.085 12.23l-2.3.804c-.029-.082-2.962-8.221-7.944-10.903-2.636-1.416-5.937-.439-7.361 2.177-1.426 2.617-.443 5.9 2.19 7.317l-1.161 2.13Z" fill="#fff"/><path d="m43.382 14.7-1.16-2.13a5.376 5.376 0 0 0 2.621-3.207 5.327 5.327 0 0 0-.43-4.109 5.382 5.382 0 0 0-3.226-2.604 5.426 5.426 0 0 0-4.134.427c-4.982 2.68-7.915 10.82-7.945 10.902l-2.299-.803c.13-.37 3.27-9.1 9.084-12.23a7.86 7.86 0 0 1 5.99-.617A7.8 7.8 0 0 1 46.556 4.1a7.72 7.72 0 0 1 .622 5.952 7.788 7.788 0 0 1-3.797 4.647ZM51.1 44.29H5.243a1.215 1.215 0 0 1-1.218-1.21c0-.669.546-1.212 1.218-1.212H51.1c.673 0 1.219.543 1.219 1.212 0 .668-.546 1.21-1.219 1.21Z" fill="#fff"/></svg>