<svg width="25" height="30" fill="none" xmlns="http://www.w3.org/2000/svg"><path d="M18.756 9.33a1.086 1.086 0 1 1-2.173-.002 1.086 1.086 0 0 1 2.173.002ZM7.883 9.33a1.086 1.086 0 1 1-2.173-.002 1.086 1.086 0 0 1 2.173.002ZM7.883 22.351c0 .6-.487 1.085-1.088 1.085a1.086 1.086 0 1 1 1.088-1.085ZM13.32 24.521c0 .6-.487 1.086-1.088 1.086a1.086 1.086 0 1 1 1.087-1.085ZM4.62 15.775a1.086 1.086 0 1 1-2.177-.002 1.086 1.086 0 0 1 2.178.002ZM22.018 15.775c0 .6-.487 1.085-1.088 1.085a1.086 1.086 0 1 1 1.088-1.085ZM18.756 22.351a1.086 1.086 0 1 1-2.177-.002 1.086 1.086 0 0 1 2.177.002Z" fill="#fff"/><path fill-rule="evenodd" clip-rule="evenodd" d="M17.386 27.058a1.058 1.058 0 0 1 1.217.196l1.826 1.875a.682.682 0 0 0 .977-.951l-1.357-1.393c-.426-.438-.362-1.15.097-1.552 2.642-2.314 4.318-5.764 4.318-9.619C24.464 8.648 18.988 3 12.232 3 5.477 3 0 8.648 0 15.614c0 3.815 1.642 7.234 4.236 9.547.453.403.513 1.11.09 1.544l-1.434 1.473a.682.682 0 0 0 .977.951l1.88-1.93a1.058 1.058 0 0 1 1.226-.191 11.878 11.878 0 0 0 5.257 1.221c1.841 0 3.588-.42 5.154-1.17Zm-5.154-.23c6.005 0 10.873-5.02 10.873-11.213S18.237 4.402 12.232 4.402c-6.005 0-10.873 5.02-10.873 11.212 0 6.193 4.868 11.213 10.873 11.213Zm-.76-11.53V7.94a.781.781 0 0 1 1.563 0v8.183c0 .443-.36.803-.803.803a.76.76 0 0 1-.76-.76V15.298Z" fill="#fff"/><path d="M11.464 4V0h1.5v4h-1.5Z" fill="#fff"/><path d="M4.464.75a.75.75 0 0 1 .75-.75h14a.75.75 0 0 1 0 1.5h-14a.75.75 0 0 1-.75-.75Z" fill="#fff"/></svg>